<svg width="132" height="28" viewBox="0 0 132 28" fill="none" xmlns="http://www.w3.org/2000/svg">
<path d="M57.9469 18.9145C58.5623 18.1208 58.8345 18.0502 59.6347 18.4951C60.6711 19.0714 61.7038 19.6552 62.7271 20.2553C63.4578 20.6838 63.5509 21.1021 63.0838 21.83C60.7524 25.4633 57.4011 27.2925 53.2016 27.5619C51.0615 27.6992 48.9241 27.6449 46.9029 26.7847C43.0176 25.1312 40.7599 22.0402 39.8877 17.9606C38.7508 12.6428 39.7219 7.75304 43.4868 3.71009C46.1149 0.888007 49.4463 -0.0554611 53.2185 0.205026C58.578 0.575115 62.7422 5.00263 63.6181 9.98425C63.7942 10.9855 63.9463 11.9989 63.7299 13.0331C63.413 14.5471 62.6305 15.2547 61.1252 15.2617C58.1103 15.2758 55.0953 15.2661 52.0805 15.2865C50.2976 15.2986 48.5149 15.3443 46.7323 15.385C45.848 15.4053 45.6572 15.6651 45.8401 16.5273C46.0167 17.3597 46.3152 18.1446 46.7087 18.8931C47.9617 21.2762 50.0129 22.1147 52.5442 22.0389C54.865 21.9693 56.5899 20.8316 57.9469 18.9145ZM51.063 10.2515C52.8473 10.2521 54.6317 10.2607 56.416 10.2498C57.3323 10.2441 57.582 9.83938 57.2225 8.97156C56.1137 6.29549 54.0549 5.501 51.8644 5.47004C49.4809 5.43636 47.3029 6.9981 46.4873 9.13761C46.2229 9.83115 46.466 10.228 47.2181 10.2423C48.4491 10.2656 49.6808 10.2504 51.063 10.2515Z" fill="white"/>
<path d="M11.0747 19.622C7.57973 14.2961 4.11483 9.01666 0.655243 3.73355C0.335474 3.24523 -0.00652006 2.7536 9.44471e-05 2.1273C0.0110965 1.08551 0.833555 0.256385 1.90496 0.252042C4.99534 0.239515 8.08585 0.257633 11.1762 0.242254C12.0739 0.237787 12.5969 0.751595 13.0505 1.44685C15.4439 5.1154 17.8485 8.77637 20.2457 12.4424C21.1973 13.8977 21.3954 13.8877 22.3494 12.4155C23.9003 10.0218 25.4744 7.64386 27.0333 5.25559C27.2348 4.94686 27.5672 4.64858 27.3266 4.22266C27.099 3.81978 26.6758 3.94087 26.3134 3.87248C24.3335 3.4989 22.9232 4.18597 22.1282 6.11201C22.0235 6.36563 21.8316 6.58759 21.6561 6.80396C20.9902 7.62471 19.9891 7.81963 19.1637 7.30137C18.2657 6.73746 17.8616 5.54283 18.395 4.62303C19.1354 3.34646 19.9651 2.12098 20.8051 0.908596C21.1552 0.403384 21.7211 0.240119 22.339 0.242271C25.3792 0.252857 28.4194 0.256432 31.4595 0.241249C32.2382 0.237362 32.8277 0.530681 33.216 1.20979C33.6246 1.92445 33.5528 2.62867 33.11 3.30636C31.3966 5.92842 29.6846 8.55148 27.9697 11.1725C26.3663 13.6231 24.7635 16.0742 23.1534 18.5203C22.0246 20.2353 20.5666 20.2417 19.4457 18.5328C16.4709 13.9973 13.4886 9.46675 10.5471 4.9088C10.0689 4.16776 9.56311 3.7501 8.66247 3.86362C8.11802 3.93225 7.55848 3.87511 7.00573 3.87709C6.67853 3.87827 6.32886 3.84748 6.1557 4.2218C5.99145 4.57687 6.18483 4.86103 6.36783 5.14293C7.08889 6.25368 7.80302 7.36914 8.52855 8.47685C10.9984 12.2476 13.4813 16.0096 15.9351 19.7912C16.3546 20.4377 16.7079 20.6694 17.4392 20.1841C18.2542 19.6433 19.3553 19.8904 19.9881 20.5926C20.5956 21.2667 20.6846 22.218 20.1541 23.0792C19.58 24.0115 18.9802 24.93 18.3455 25.8204C17.4545 27.0703 15.9249 27.0284 15.0763 25.743C13.7435 23.7243 12.4286 21.6932 11.0747 19.622Z" fill="white"/>
<path d="M108.594 27.4101C106.305 27.6983 104.169 27.4629 102.191 26.3035C100.704 25.4322 99.6627 24.1316 98.8733 22.6153C98.3922 21.6911 98.7131 20.7601 99.6251 20.2799C100.205 19.9745 100.798 19.6937 101.392 19.4173C102.5 18.901 103.237 19.1272 103.891 20.1699C104.908 21.7896 106.468 22.3802 108.241 21.8518C109.285 21.5406 109.937 20.8396 110.166 19.7928C110.397 18.7337 110.043 17.8238 109.23 17.1121C108.633 16.5892 107.941 16.231 107.234 15.8908C105.94 15.2679 104.658 14.6196 103.366 13.9928C97.3839 11.0908 99.0858 3.741 102.975 1.32979C106.064 -0.585607 111.035 -0.651786 114.102 2.59299C115.329 3.89174 115.237 4.91272 113.761 5.9042C113.342 6.18597 112.924 6.47042 112.498 6.74284C111.577 7.3331 110.946 7.28649 110.104 6.56566C109.134 5.73597 108.053 5.28608 106.772 5.57612C105.87 5.78025 105.29 6.38154 105.197 7.22318C105.101 8.09583 105.619 8.60617 106.307 8.96573C108.295 10.0054 110.306 11.0009 112.279 12.0705C114.257 13.1431 115.795 14.6351 116.29 16.9774C117.273 21.637 114.152 26.3877 109.551 27.253C109.255 27.3086 108.958 27.3556 108.594 27.4101Z" fill="white"/>
<path d="M87.0662 6.5104C85.7152 7.40065 85.3264 7.36013 84.0694 6.38244C83.1604 5.67539 82.1429 5.29732 80.9721 5.57276C80.1324 5.77032 79.5825 6.27853 79.4087 7.14432C79.2613 7.87821 79.6247 8.5225 80.4906 8.97872C82.2309 9.89568 83.9882 10.7795 85.7439 11.6658C87.0385 12.3193 88.2413 13.0931 89.1742 14.2454C91.0156 16.5197 91.1933 20.1209 89.5444 22.983C88.0147 25.638 85.7129 27.0878 82.7063 27.4257C81.444 27.5676 80.2066 27.5296 78.9623 27.2907C76.2007 26.7603 74.3453 25.046 73.0632 22.6001C72.5863 21.6904 72.8664 20.8122 73.7608 20.318C74.4442 19.9404 75.1518 19.6014 75.87 19.2977C76.7439 18.9282 77.5076 19.2018 78.0387 20.1198C78.9724 21.7341 80.3748 22.2015 82.0907 21.9269C83.2366 21.7435 84.0196 21.0756 84.3275 19.9202C84.6197 18.8242 84.2765 17.8953 83.4637 17.1518C82.8605 16.5999 82.1433 16.2273 81.4123 15.877C80.049 15.2236 78.6805 14.5786 77.3414 13.8761C71.5277 10.8263 73.4786 3.65363 77.0623 1.39177C80.1772 -0.574164 85.1631 -0.651791 88.2111 2.50511C89.5331 3.87439 89.4486 4.91551 87.8683 5.97294C87.6163 6.14155 87.3647 6.31076 87.0662 6.5104Z" fill="white"/>
<path d="M131.999 11.3709C131.998 15.8523 131.998 20.2568 131.996 24.6614C131.995 26.3373 131.421 26.925 129.779 26.9314C129.126 26.9339 128.473 26.9437 127.821 26.9261C126.642 26.8945 126.019 26.2799 125.95 25.0772C125.922 24.5922 125.941 24.1044 125.94 23.6179C125.939 17.6769 125.953 11.7358 125.921 5.79502C125.915 4.67099 126.239 3.83407 127.163 3.18209C128.049 2.55727 128.866 1.82989 129.706 1.13779C130.175 0.75082 130.66 0.441124 131.282 0.742471C131.896 1.04034 132 1.6107 132 2.22888C131.998 5.25059 131.999 8.2723 131.999 11.3709Z" fill="white"/>
</svg>
