<svg width="82" height="17" viewBox="0 0 82 17" fill="none" xmlns="http://www.w3.org/2000/svg">
<path d="M35.8486 11.1471C36.2294 10.6794 36.3977 10.6378 36.8928 10.9C37.534 11.2396 38.1728 11.5836 38.8059 11.9373C39.2579 12.1899 39.3155 12.4364 39.0265 12.8654C37.5842 15.0066 35.5109 16.0847 32.9129 16.2435C31.589 16.3244 30.2667 16.2923 29.0163 15.7854C26.6126 14.8109 25.2159 12.9893 24.6763 10.5849C23.973 7.45095 24.5738 4.56915 26.9029 2.18645C28.5288 0.523256 30.5897 -0.0327745 32.9234 0.120743C36.239 0.338854 38.8152 2.9482 39.3571 5.88411C39.466 6.47419 39.5601 7.07141 39.4262 7.68094C39.2302 8.5732 38.7461 8.99024 37.8149 8.99438C35.9497 9.00267 34.0845 8.99695 32.2194 9.00897C31.1164 9.01608 30.0135 9.04303 28.9108 9.06705C28.3636 9.07897 28.2456 9.23209 28.3588 9.74023C28.4681 10.2308 28.6527 10.6934 28.8962 11.1345C29.6713 12.539 30.9403 13.0332 32.5063 12.9885C33.942 12.9475 35.0091 12.277 35.8486 11.1471ZM31.5899 6.04163C32.6938 6.04194 33.7977 6.04705 34.9015 6.04059C35.4684 6.03727 35.6229 5.79873 35.4005 5.28728C34.7145 3.71014 33.4408 3.24191 32.0857 3.22367C30.6111 3.20382 29.2637 4.12422 28.7592 5.38514C28.5956 5.79388 28.746 6.02775 29.2113 6.03616C29.9728 6.04992 30.7348 6.04096 31.5899 6.04163Z" fill="#005864"/>
<path d="M6.85131 11.5642C4.68917 8.42537 2.54562 5.31391 0.405364 2.20032C0.20754 1.91254 -0.00403361 1.62279 5.84293e-05 1.25368C0.00686479 0.639706 0.515676 0.151063 1.1785 0.148504C3.09035 0.141121 5.00228 0.151798 6.91412 0.142735C7.4695 0.140103 7.79303 0.442914 8.07365 0.852661C9.55432 3.01471 11.0419 5.1723 12.5249 7.33284C13.1136 8.19054 13.2362 8.18467 13.8264 7.31698C14.7858 5.90632 15.7596 4.50486 16.724 3.09733C16.8487 2.91539 17.0543 2.73959 16.9055 2.48858C16.7647 2.25114 16.5029 2.32251 16.2787 2.2822C15.0538 2.06203 14.1813 2.46696 13.6895 3.60206C13.6248 3.75153 13.506 3.88235 13.3974 4.00986C12.9855 4.49357 12.3662 4.60845 11.8556 4.30301C11.3 3.97067 11.05 3.26662 11.38 2.72454C11.8381 1.97219 12.3514 1.24996 12.871 0.535443C13.0876 0.237697 13.4377 0.141477 13.82 0.142745C15.7007 0.148984 17.5816 0.151091 19.4623 0.142143C19.9441 0.139852 20.3087 0.312719 20.549 0.712953C20.8018 1.13414 20.7573 1.54916 20.4834 1.94856C19.4234 3.49386 18.3643 5.03976 17.3034 6.58447C16.3114 8.02874 15.3199 9.47327 14.3238 10.9148C13.6254 11.9256 12.7235 11.9294 12.03 10.9222C10.1896 8.24925 8.34466 5.57917 6.52494 2.89295C6.22908 2.45622 5.91618 2.21007 5.35901 2.27698C5.02218 2.31743 4.67602 2.28375 4.33407 2.28492C4.13165 2.28561 3.91533 2.26747 3.8082 2.48807C3.70659 2.69733 3.82622 2.8648 3.93943 3.03094C4.38551 3.68556 4.82731 4.34295 5.27616 4.99577C6.8041 7.21808 8.34016 9.43516 9.85816 11.6639C10.1177 12.0449 10.3363 12.1815 10.7887 11.8954C11.2929 11.5767 11.9741 11.7223 12.3656 12.1361C12.7414 12.5335 12.7964 13.0941 12.4683 13.6016C12.1131 14.1511 11.742 14.6924 11.3494 15.2171C10.7981 15.9538 9.85187 15.9291 9.32691 15.1716C8.50239 13.9818 7.68893 12.7848 6.85131 11.5642Z" fill="#005864"/>
<path d="M67.1815 16.1541C65.7652 16.324 64.4437 16.1852 63.2199 15.5019C62.3002 14.9884 61.656 14.2219 61.1676 13.3283C60.87 12.7836 61.0685 12.2349 61.6327 11.9519C61.9914 11.772 62.3581 11.6064 62.7255 11.4435C63.4115 11.1393 63.8671 11.2726 64.2719 11.8871C64.9007 12.8416 65.8658 13.1897 66.9629 12.8783C67.609 12.6949 68.0121 12.2818 68.1537 11.6648C68.297 11.0407 68.0774 10.5044 67.5747 10.085C67.2054 9.77682 66.7772 9.56572 66.3401 9.36523C65.5396 8.99812 64.7465 8.61601 63.9472 8.24662C60.2462 6.53634 61.2991 2.20475 63.705 0.783707C65.6161 -0.345127 68.6911 -0.384128 70.5886 1.52817C71.3481 2.29359 71.2908 2.8953 70.3778 3.47962C70.1184 3.64569 69.8598 3.81333 69.5968 3.97388C69.0267 4.32175 68.6364 4.29428 68.1153 3.86946C67.5155 3.38048 66.8467 3.11534 66.0539 3.28628C65.4959 3.40658 65.1375 3.76095 65.08 4.25696C65.0204 4.77126 65.341 5.07203 65.7664 5.28393C66.9965 5.89664 68.2406 6.48333 69.4609 7.11373C70.6845 7.74585 71.6361 8.62518 71.9421 10.0056C72.5507 12.7517 70.6195 15.5515 67.7733 16.0615C67.5903 16.0943 67.4064 16.1219 67.1815 16.1541Z" fill="#005864"/>
<path d="M53.8632 3.83676C53.0274 4.36143 52.7869 4.33755 52.0092 3.76135C51.4469 3.34465 50.8174 3.12184 50.0931 3.28417C49.5736 3.4006 49.2334 3.70011 49.1259 4.21036C49.0347 4.64288 49.2595 5.02259 49.7952 5.29146C50.8719 5.83187 51.959 6.35273 53.0451 6.87507C53.8461 7.26024 54.5901 7.71626 55.1673 8.39534C56.3065 9.73573 56.4164 11.8581 55.3963 13.5449C54.4499 15.1096 53.0259 15.964 51.1659 16.1631C50.385 16.2468 49.6195 16.2244 48.8498 16.0836C47.1413 15.771 45.9934 14.7607 45.2003 13.3192C44.9052 12.7831 45.0785 12.2655 45.6319 11.9743C46.0546 11.7517 46.4924 11.5519 46.9367 11.373C47.4773 11.1552 47.9498 11.3164 48.2783 11.8574C48.856 12.8088 49.7236 13.0843 50.7851 12.9224C51.494 12.8144 51.9784 12.4207 52.1689 11.7398C52.3496 11.0939 52.1373 10.5464 51.6345 10.1082C51.2613 9.783 50.8177 9.5634 50.3654 9.35694C49.522 8.9719 48.6754 8.59173 47.847 8.17772C44.2503 6.3803 45.4572 2.15313 47.6743 0.820108C49.6014 -0.338509 52.6859 -0.384258 54.5714 1.47626C55.3893 2.28324 55.337 2.89682 54.3594 3.52001C54.2035 3.61938 54.0479 3.7191 53.8632 3.83676Z" fill="#005864"/>
<path d="M81.6605 6.70138C81.66 9.34249 81.6598 11.9383 81.6587 14.5341C81.6583 15.5218 81.303 15.8681 80.2874 15.8719C79.8835 15.8734 79.4793 15.8792 79.0757 15.8688C78.3468 15.8502 77.9609 15.488 77.9183 14.7792C77.9012 14.4934 77.9127 14.2059 77.9126 13.9191C77.9114 10.4178 77.9206 6.91646 77.9005 3.41525C77.8967 2.7528 78.0971 2.25956 78.669 1.87533C79.2171 1.50709 79.7225 1.07841 80.2419 0.670517C80.5323 0.44246 80.8324 0.259941 81.217 0.437539C81.5972 0.61309 81.6615 0.949228 81.6613 1.31355C81.6603 3.09439 81.6606 4.87523 81.6605 6.70138Z" fill="#005864"/>
</svg>
