<svg width="45" height="45" viewBox="0 0 45 45" fill="none" xmlns="http://www.w3.org/2000/svg">
<path d="M12.1875 37.5C9.34375 37.5 6.91437 36.5156 4.89937 34.5469C2.88437 32.5781 1.87625 30.1719 1.875 27.3281C1.875 24.8906 2.60937 22.7188 4.07812 20.8125C5.54687 18.9063 7.46875 17.6875 9.84375 17.1562C10.625 14.2812 12.1875 11.9531 14.5312 10.1719C16.875 8.39063 19.5312 7.5 22.5 7.5C26.1563 7.5 29.2581 8.77375 31.8056 11.3213C34.3531 13.8688 35.6262 16.97 35.625 20.625C37.7812 20.875 39.5706 21.805 40.9931 23.415C42.4156 25.025 43.1262 26.9075 43.125 29.0625C43.125 31.4062 42.305 33.3987 40.665 35.04C39.025 36.6812 37.0325 37.5012 34.6875 37.5H12.1875Z" fill="white"/>
</svg>
