<svg width="20" height="20" viewBox="0 0 20 20" fill="none" xmlns="http://www.w3.org/2000/svg">
<path d="M10 0C8.02219 0 6.08879 0.586489 4.4443 1.6853C2.79981 2.78412 1.51809 4.3459 0.761209 6.17316C0.00433267 8.00043 -0.1937 10.0111 0.192152 11.9509C0.578004 13.8907 1.53041 15.6725 2.92894 17.0711C4.32746 18.4696 6.10929 19.422 8.0491 19.8078C9.98891 20.1937 11.9996 19.9957 13.8268 19.2388C15.6541 18.4819 17.2159 17.2002 18.3147 15.5557C19.4135 13.9112 20 11.9778 20 10C19.9969 7.34879 18.9423 4.80706 17.0676 2.93237C15.1929 1.05768 12.6512 0.00311358 10 0ZM10 18.8235C8.25487 18.8235 6.54893 18.306 5.09791 17.3365C3.64689 16.367 2.51596 14.9889 1.84813 13.3766C1.18029 11.7643 1.00556 9.99021 1.34602 8.27861C1.68647 6.56702 2.52683 4.99481 3.76083 3.76082C4.99482 2.52683 6.56702 1.68647 8.27862 1.34601C9.99021 1.00555 11.7643 1.18029 13.3766 1.84812C14.9889 2.51595 16.367 3.64689 17.3365 5.09791C18.306 6.54893 18.8235 8.25487 18.8235 10C18.8209 12.3393 17.8905 14.5821 16.2363 16.2363C14.5821 17.8905 12.3394 18.8209 10 18.8235ZM6.66667 10C6.66667 10.6996 6.88679 11.3815 7.29586 11.949C7.70493 12.5166 8.2822 12.941 8.94591 13.1623C9.60962 13.3835 10.3261 13.3903 10.9939 13.1817C11.6617 12.9731 12.2469 12.5597 12.6667 12C12.7604 11.8752 12.8999 11.7927 13.0544 11.7708C13.2089 11.7488 13.3659 11.7891 13.4907 11.8828C13.6155 11.9766 13.698 12.1161 13.7199 12.2706C13.7419 12.4251 13.7016 12.5821 13.6078 12.7069C13.0398 13.4638 12.248 14.0229 11.3445 14.3049C10.4411 14.5869 9.47185 14.5776 8.57403 14.2782C7.67622 13.9788 6.89535 13.4045 6.34202 12.6367C5.78868 11.8689 5.49093 10.9464 5.49093 10C5.49093 9.05357 5.78868 8.13114 6.34202 7.36332C6.89535 6.5955 7.67622 6.02122 8.57403 5.72182C9.47185 5.42241 10.4411 5.41305 11.3445 5.69506C12.248 5.97706 13.0398 6.53615 13.6078 7.29314C13.7016 7.41794 13.7419 7.57488 13.7199 7.72941C13.698 7.88394 13.6155 8.02342 13.4907 8.11715C13.3659 8.21089 13.2089 8.25121 13.0544 8.22924C12.8999 8.20727 12.7604 8.12481 12.6667 8C12.2469 7.44031 11.6617 7.02689 10.9939 6.81829C10.3261 6.60969 9.60962 6.61649 8.94591 6.83772C8.2822 7.05896 7.70493 7.48341 7.29586 8.05096C6.88679 8.61852 6.66667 9.30039 6.66667 10Z" fill="white"/>
</svg>
