<svg width="44" height="44" viewBox="0 0 44 44" fill="none" xmlns="http://www.w3.org/2000/svg">
<path d="M30.0023 14.0117L2 42M33.0026 28.0058H16.0012M23.3418 36.0025C23.868 36.0024 24.3891 35.8985 24.8751 35.6968C25.3611 35.4951 25.8025 35.1995 26.174 34.827L38.483 22.4881C40.7349 20.2374 42 17.1847 42 14.0017C42 10.8186 40.7349 7.76596 38.483 5.51521C36.2312 3.26446 33.177 2 29.9923 2C26.8077 2 23.7535 3.26446 21.5016 5.51521L9.1726 17.8381C8.42234 18.5877 8.00073 19.6046 8.0005 20.6649V34.0033C8.0005 34.5335 8.21123 35.042 8.58633 35.417C8.96144 35.7919 9.47019 36.0025 10.0007 36.0025H23.3418Z" stroke="white" stroke-width="4" stroke-linecap="round" stroke-linejoin="round"/>
</svg>
