<svg width="20" height="20" viewBox="0 0 20 20" fill="none" xmlns="http://www.w3.org/2000/svg">
<path fill-rule="evenodd" clip-rule="evenodd" d="M10 20C15.523 20 20 15.523 20 10C20 4.477 15.523 0 10 0C4.477 0 0 4.477 0 10C0 15.523 4.477 20 10 20ZM10.47 6.47C10.6106 6.32955 10.8012 6.25066 11 6.25066C11.1988 6.25066 11.3894 6.32955 11.53 6.47L14.53 9.47C14.6705 9.61063 14.7493 9.80125 14.7493 10C14.7493 10.1988 14.6705 10.3894 14.53 10.53L11.53 13.53C11.4613 13.6037 11.3785 13.6628 11.2865 13.7038C11.1945 13.7448 11.0952 13.7668 10.9945 13.7686C10.8938 13.7704 10.7938 13.7518 10.7004 13.7141C10.607 13.6764 10.5222 13.6203 10.451 13.549C10.3797 13.4778 10.3236 13.393 10.2859 13.2996C10.2482 13.2062 10.2296 13.1062 10.2314 13.0055C10.2332 12.9048 10.2552 12.8055 10.2962 12.7135C10.3372 12.6215 10.3963 12.5387 10.47 12.47L12.19 10.75H6C5.80109 10.75 5.61032 10.671 5.46967 10.5303C5.32902 10.3897 5.25 10.1989 5.25 10C5.25 9.80109 5.32902 9.61032 5.46967 9.46967C5.61032 9.32902 5.80109 9.25 6 9.25H12.19L10.47 7.53C10.3295 7.38937 10.2507 7.19875 10.2507 7C10.2507 6.80125 10.3295 6.61063 10.47 6.47Z" fill="white"/>
</svg>
