<svg width="20" height="21" viewBox="0 0 20 21" fill="none" xmlns="http://www.w3.org/2000/svg">
<path fill-rule="evenodd" clip-rule="evenodd" d="M10 20.5C15.523 20.5 20 16.023 20 10.5C20 4.977 15.523 0.5 10 0.5C4.477 0.5 0 4.977 0 10.5C0 16.023 4.477 20.5 10 20.5ZM10.47 6.97C10.6106 6.82955 10.8012 6.75066 11 6.75066C11.1988 6.75066 11.3894 6.82955 11.53 6.97L14.53 9.97C14.6705 10.1106 14.7493 10.3012 14.7493 10.5C14.7493 10.6988 14.6705 10.8894 14.53 11.03L11.53 14.03C11.4613 14.1037 11.3785 14.1628 11.2865 14.2038C11.1945 14.2448 11.0952 14.2668 10.9945 14.2686C10.8938 14.2704 10.7938 14.2518 10.7004 14.2141C10.607 14.1764 10.5222 14.1203 10.451 14.049C10.3797 13.9778 10.3236 13.893 10.2859 13.7996C10.2482 13.7062 10.2296 13.6062 10.2314 13.5055C10.2332 13.4048 10.2552 13.3055 10.2962 13.2135C10.3372 13.1215 10.3963 13.0387 10.47 12.97L12.19 11.25H6C5.80109 11.25 5.61032 11.171 5.46967 11.0303C5.32902 10.8897 5.25 10.6989 5.25 10.5C5.25 10.3011 5.32902 10.1103 5.46967 9.96967C5.61032 9.82902 5.80109 9.75 6 9.75H12.19L10.47 8.03C10.3295 7.88937 10.2507 7.69875 10.2507 7.5C10.2507 7.30125 10.3295 7.11063 10.47 6.97Z" fill="#707072"/>
</svg>
