<svg width="78" height="77" viewBox="0 0 78 77" fill="none" xmlns="http://www.w3.org/2000/svg">
<path d="M32.662 43.904L36.26 41.825L31.594 37.9L32.662 43.904Z" fill="#005864"/>
<path d="M77.115 38.223C77.115 37.338 76.68 36.56 76.018 36.072L76.032 36.048L66.708 30.665L72.075 21.369L72.057 21.358C72.2262 20.9748 72.3029 20.5572 72.2808 20.1388C72.2588 19.7205 72.1386 19.3133 71.93 18.95C71.7194 18.5873 71.4263 18.2794 71.0745 18.0511C70.7227 17.8228 70.322 17.6806 69.905 17.636V17.61H59.137V6.873H59.115C59.07 6.45651 58.9275 6.05647 58.6993 5.70521C58.471 5.35395 58.1633 5.06132 57.801 4.851C57.4373 4.64132 57.0292 4.52069 56.61 4.49896C56.1908 4.47724 55.7724 4.55504 55.389 4.726L55.376 4.703L45.895 10.177L40.645 1.083L40.626 1.094C40.3787 0.755846 40.0554 0.48062 39.682 0.29057C39.3087 0.100521 38.8959 0.000982227 38.477 0C37.592 0 36.813 0.434999 36.326 1.097L36.302 1.083L30.965 10.327L21.775 5.021L21.764 5.04C21.3808 4.87079 20.9632 4.79412 20.5448 4.81618C20.1265 4.83824 19.7193 4.95842 19.356 5.167C18.9931 5.3775 18.685 5.67054 18.4565 6.02236C18.2281 6.37419 18.0857 6.77489 18.041 7.192H18.014V17.866H7.402V17.887C6.98551 17.932 6.58547 18.0745 6.23421 18.3027C5.88294 18.531 5.59032 18.8387 5.38 19.201C5.17125 19.5646 5.05107 19.9723 5.02918 20.391C5.00729 20.8096 5.08431 21.2276 5.254 21.611L5.231 21.625L10.477 30.712L1.083 36.136L1.094 36.155C0.755846 36.4023 0.480621 36.7256 0.290571 37.099C0.100522 37.4723 0.000982227 37.8851 0 38.304C0 39.189 0.435 39.968 1.097 40.455L1.083 40.479L10.407 45.862L5.04 55.158L5.058 55.168C4.88879 55.5512 4.81212 55.9688 4.83418 56.3872C4.85624 56.8055 4.97642 57.2127 5.185 57.576C5.39562 57.9387 5.68871 58.2466 6.04052 58.4749C6.39234 58.7032 6.79298 58.8454 7.21 58.89V58.917H17.977V69.653H17.999C18.091 70.469 18.548 71.233 19.313 71.675C19.6769 71.8839 20.085 72.0041 20.5041 72.0258C20.9231 72.0475 21.3414 71.9702 21.725 71.8L21.738 71.823L31.219 66.349L36.469 75.443L36.488 75.432C36.7353 75.7702 37.0586 76.0454 37.432 76.2354C37.8053 76.4255 38.2181 76.525 38.637 76.526C39.522 76.526 40.301 76.091 40.788 75.43L40.811 75.443L46.148 66.199L55.339 71.505L55.35 71.486C55.7332 71.6552 56.1508 71.7319 56.5692 71.7098C56.9875 71.6878 57.3947 71.5676 57.758 71.359C58.1214 71.1491 58.43 70.8562 58.6585 70.5043C58.887 70.1524 59.0291 69.7513 59.073 69.334H59.1V58.661H69.713V58.64C70.1295 58.595 70.5295 58.4525 70.8808 58.2243C71.2321 57.996 71.5247 57.6883 71.735 57.326C71.9437 56.9624 72.0639 56.5547 72.0858 56.136C72.1077 55.7174 72.0307 55.2994 71.861 54.916L71.884 54.903L66.638 45.816L76.032 40.392L76.021 40.373C76.3593 40.1256 76.6346 39.8021 76.8247 39.4286C77.0147 39.0551 77.1142 38.6421 77.115 38.223ZM26.094 53.46C23.864 54.748 21.842 54.924 20.123 54.462L20.364 51.765C21.666 52.142 23.349 52.14 24.939 51.221C26.306 50.432 26.597 49.456 26.208 48.783C25.049 46.777 19.216 52.013 16.709 47.672C15.601 45.752 16.342 43.201 19.059 41.633C20.892 40.574 22.734 40.25 24.485 40.645L24.176 43.268C22.743 42.944 21.268 43.264 20.092 43.942C19.054 44.542 18.725 45.331 19.125 46.024C20.174 47.84 26.09 42.788 28.576 47.093C29.795 49.202 29.192 51.673 26.094 53.46ZM40.037 45.134L38.183 43.599L33.236 46.455L33.637 48.829L30.852 50.436L28.637 36.333L31.716 34.556L42.822 43.527L40.037 45.134ZM43.79 42.968L37.129 31.43L39.603 30.001L45.016 39.376L49.894 36.56L51.143 38.723L43.79 42.968ZM52.802 37.765L46.141 26.228L54.305 21.513L55.553 23.675L49.846 26.971L51.244 29.393L56.83 26.167L58.078 28.329L52.492 31.554L54.01 34.184L59.718 30.888L60.967 33.05L52.802 37.765Z" fill="#005864"/>
</svg>
