<svg width="21" height="22" viewBox="0 0 21 22" fill="none" xmlns="http://www.w3.org/2000/svg">
<path d="M11.1693 21.0106L11.1583 21.0126L11.0873 21.0476L11.0673 21.0516L11.0533 21.0476L10.9823 21.0126C10.9716 21.0093 10.9636 21.011 10.9583 21.0176L10.9543 21.0276L10.9373 21.4556L10.9423 21.4756L10.9523 21.4886L11.0563 21.5626L11.0713 21.5666L11.0833 21.5626L11.1873 21.4886L11.1993 21.4726L11.2033 21.4556L11.1863 21.0286C11.1836 21.018 11.1779 21.012 11.1693 21.0106ZM11.4343 20.8976L11.4213 20.8996L11.2363 20.9926L11.2263 21.0026L11.2233 21.0136L11.2413 21.4436L11.2463 21.4556L11.2543 21.4626L11.4553 21.5556C11.4679 21.559 11.4776 21.5563 11.4843 21.5476L11.4883 21.5336L11.4543 20.9196C11.4509 20.9076 11.4443 20.9003 11.4343 20.8976ZM10.7193 20.8996C10.7149 20.897 10.7096 20.8961 10.7046 20.8972C10.6995 20.8983 10.6951 20.9013 10.6923 20.9056L10.6863 20.9196L10.6523 21.5336C10.6529 21.5456 10.6586 21.5536 10.6693 21.5576L10.6843 21.5556L10.8853 21.4626L10.8953 21.4546L10.8993 21.4436L10.9163 21.0136L10.9133 21.0016L10.9033 20.9916L10.7193 20.8996Z" fill="#005864"/>
<path d="M9.49628 0.620635C9.60632 0.431795 9.76396 0.275109 9.95346 0.166209C10.143 0.0573086 10.3577 0 10.5763 0C10.7948 0 11.0096 0.0573086 11.1991 0.166209C11.3886 0.275109 11.5462 0.431795 11.6563 0.620635L14.4513 5.41864L19.8793 6.59464C20.0928 6.64103 20.2904 6.74258 20.4524 6.88917C20.6145 7.03575 20.7352 7.22225 20.8027 7.43006C20.8702 7.63787 20.882 7.85974 20.8371 8.07355C20.7921 8.28737 20.6918 8.48565 20.5463 8.64863L16.8463 12.7896L17.4063 18.3146C17.4284 18.5322 17.393 18.7517 17.3037 18.9513C17.2144 19.151 17.0743 19.3237 16.8974 19.4522C16.7205 19.5807 16.513 19.6606 16.2955 19.6838C16.0781 19.7071 15.8584 19.6729 15.6583 19.5846L10.5763 17.3446L5.49428 19.5846C5.2942 19.6729 5.07447 19.7071 4.85703 19.6838C4.6396 19.6606 4.43206 19.5807 4.25515 19.4522C4.07824 19.3237 3.93814 19.151 3.84885 18.9513C3.75955 18.7517 3.72419 18.5322 3.74628 18.3146L4.30628 12.7896L0.606279 8.64964C0.460507 8.48666 0.360034 8.2883 0.314893 8.07435C0.269751 7.86041 0.281519 7.63837 0.349023 7.43039C0.416526 7.22242 0.537403 7.03579 0.699585 6.88913C0.861768 6.74248 1.05958 6.64093 1.27328 6.59464L6.70128 5.41864L9.49628 0.620635Z" fill="#005864"/>
</svg>
