<svg width="22" height="22" viewBox="0 0 22 22" fill="none" xmlns="http://www.w3.org/2000/svg">
<path d="M11.7451 21.0106L11.7341 21.0126L11.6631 21.0476L11.6431 21.0516L11.6291 21.0476L11.5581 21.0126C11.5475 21.0093 11.5395 21.011 11.5341 21.0176L11.5301 21.0276L11.5131 21.4556L11.5181 21.4756L11.5281 21.4886L11.6321 21.5626L11.6471 21.5666L11.6591 21.5626L11.7631 21.4886L11.7751 21.4726L11.7791 21.4556L11.7621 21.0286C11.7595 21.018 11.7538 21.012 11.7451 21.0106ZM12.0101 20.8976L11.9971 20.8996L11.8121 20.9926L11.8021 21.0026L11.7991 21.0136L11.8171 21.4436L11.8221 21.4556L11.8301 21.4626L12.0311 21.5556C12.0438 21.559 12.0535 21.5563 12.0601 21.5476L12.0641 21.5336L12.0301 20.9196C12.0268 20.9076 12.0201 20.9003 12.0101 20.8976ZM11.2951 20.8996C11.2907 20.897 11.2855 20.8961 11.2804 20.8972C11.2754 20.8983 11.271 20.9013 11.2681 20.9056L11.2621 20.9196L11.2281 21.5336C11.2288 21.5456 11.2345 21.5536 11.2451 21.5576L11.2601 21.5556L11.4611 21.4626L11.4711 21.4546L11.4751 21.4436L11.4921 21.0136L11.4891 21.0016L11.4791 20.9916L11.2951 20.8996Z" fill="#707072"/>
<path d="M10.0721 0.620635C10.1822 0.431795 10.3398 0.275109 10.5293 0.166209C10.7188 0.0573086 10.9336 0 11.1521 0C11.3707 0 11.5855 0.0573086 11.775 0.166209C11.9645 0.275109 12.1221 0.431795 12.2321 0.620635L15.0271 5.41864L20.4551 6.59464C20.6687 6.64103 20.8663 6.74258 21.0283 6.88917C21.1903 7.03575 21.3111 7.22225 21.3786 7.43006C21.4461 7.63787 21.4579 7.85974 21.4129 8.07355C21.3679 8.28737 21.2677 8.48565 21.1221 8.64863L17.4221 12.7896L17.9821 18.3146C18.0042 18.5322 17.9689 18.7517 17.8796 18.9513C17.7903 19.151 17.6502 19.3237 17.4733 19.4522C17.2964 19.5807 17.0888 19.6606 16.8714 19.6838C16.654 19.7071 16.4342 19.6729 16.2341 19.5846L11.1521 17.3446L6.07015 19.5846C5.87006 19.6729 5.65034 19.7071 5.4329 19.6838C5.21546 19.6606 5.00793 19.5807 4.83102 19.4522C4.65411 19.3237 4.51401 19.151 4.42471 18.9513C4.33542 18.7517 4.30005 18.5322 4.32215 18.3146L4.88215 12.7896L1.18215 8.64964C1.03637 8.48666 0.935901 8.2883 0.89076 8.07435C0.845618 7.86041 0.857386 7.63837 0.924889 7.43039C0.992393 7.22242 1.11327 7.03579 1.27545 6.88913C1.43763 6.74248 1.63545 6.64093 1.84915 6.59464L7.27715 5.41864L10.0721 0.620635Z" fill="#707072"/>
</svg>
