<svg width="40" height="40" viewBox="0 0 40 40" fill="none" xmlns="http://www.w3.org/2000/svg">
<path d="M23.1579 24H31.6842V36C31.6842 36.4964 31.4776 36.9945 31.0735 37.3784C30.6659 37.7657 30.0921 38 29.4737 38H12.6316C12.0132 38 11.4394 37.7657 11.0318 37.3784C10.6277 36.9945 10.4211 36.4964 10.4211 36V24H18.9474H20.9474V22V16C20.9474 12.8515 22.263 9.80979 24.6412 7.55051C27.0229 5.28792 30.274 4 33.6842 4H38V6C38 9.14854 36.6844 12.1902 34.3062 14.4495C31.9245 16.7121 28.6733 18 25.2632 18H23.1579H21.1579V20V22V24H23.1579ZM13.7458 3.4706C15.2639 4.2169 16.6128 5.21936 17.7303 6.42004C15.8542 9.26416 14.8432 12.5719 14.8421 15.9693C11.5019 15.7526 8.35946 14.3961 6.00213 12.1566C3.42653 9.70979 2 6.41375 2 3V2.00001L7.36842 2.00001L7.36996 2C9.5931 1.99829 11.7801 2.50428 13.7458 3.4706Z" stroke="white" stroke-width="4"/>
</svg>
