<svg width="40" height="40" viewBox="0 0 40 40" fill="none" xmlns="http://www.w3.org/2000/svg">
<path d="M37.075 39.6188L28.5437 31.0875C27.5009 32.1675 26.2512 33.0262 24.8692 33.6125C23.4872 34.1988 22.0012 34.5007 20.5 34.5C14.2937 34.5 9.24999 29.4563 9.24999 23.25C9.24999 20.7563 10.5062 17.6813 12.1562 14.7L0.0812378 2.62502L2.48124 0.243774L39.4562 37.2375L37.075 39.6188ZM31.75 23.25C31.75 15.75 20.5 3.09377 20.5 3.09377C20.5 3.09377 18.325 5.53127 15.9062 8.90627L31.6562 24.6563C31.75 24.1875 31.75 23.7188 31.75 23.25Z" fill="white"/>
</svg>
